<svg width="15" height="16" viewBox="0 0 15 16" fill="none" xmlns="http://www.w3.org/2000/svg">
<path d="M14.7311 13.8987C14.2505 13.4703 13.8298 12.9791 13.4802 12.4385C13.0986 11.6922 12.8698 10.8772 12.8074 10.0414V7.57947C12.8107 6.2666 12.3345 4.99771 11.4682 4.0112C10.6019 3.0247 9.40521 2.38849 8.10292 2.2221V1.57922C8.10292 1.40277 8.03282 1.23354 7.90805 1.10877C7.78328 0.984005 7.61406 0.91391 7.43761 0.91391C7.26115 0.91391 7.09193 0.984005 6.96716 1.10877C6.84239 1.23354 6.7723 1.40277 6.7723 1.57922V2.23207C5.48167 2.41045 4.29942 3.05051 3.44451 4.03369C2.58961 5.01688 2.11997 6.27658 2.1226 7.57947V10.0414C2.06018 10.8772 1.83145 11.6922 1.44981 12.4385C1.10639 12.9779 0.692404 13.469 0.218866 13.8987C0.165706 13.9454 0.123101 14.0029 0.0938856 14.0673C0.0646698 14.1318 0.0495128 14.2017 0.0494232 14.2724V14.9502C0.0494232 15.0824 0.101929 15.2091 0.195389 15.3026C0.28885 15.3961 0.41561 15.4486 0.547783 15.4486H14.4022C14.5344 15.4486 14.6611 15.3961 14.7546 15.3026C14.848 15.2091 14.9005 15.0824 14.9005 14.9502V14.2724C14.9005 14.2017 14.8853 14.1318 14.8561 14.0673C14.8269 14.0029 14.7843 13.9454 14.7311 13.8987ZM1.08601 14.4519C1.54969 14.0039 1.95794 13.502 2.30201 12.9568C2.78273 12.0555 3.06322 11.061 3.1243 10.0414V7.57947C3.10454 6.99541 3.20251 6.41335 3.41238 5.86794C3.62225 5.32253 3.93972 4.82493 4.34591 4.40477C4.75209 3.98461 5.23866 3.65049 5.77666 3.42229C6.31466 3.1941 6.89308 3.0765 7.47747 3.0765C8.06187 3.0765 8.64029 3.1941 9.17829 3.42229C9.71629 3.65049 10.2029 3.98461 10.609 4.40477C11.0152 4.82493 11.3327 5.32253 11.5426 5.86794C11.7524 6.41335 11.8504 6.99541 11.8306 7.57947V10.0414C11.8917 11.061 12.1722 12.0555 12.6529 12.9568C12.997 13.502 13.4053 14.0039 13.8689 14.4519H1.08601Z" fill="#424242"/>
</svg>
